<svg width="21" height="21" viewBox="0 0 21 21" fill="none" xmlns="http://www.w3.org/2000/svg">
<path d="M10.5 7.875C10.9813 7.875 11.375 7.48125 11.375 7V5.25H13.125C13.6063 5.25 14 4.85625 14 4.375C14 3.89375 13.6063 3.5 13.125 3.5H11.375V1.75C11.375 1.26875 10.9813 0.875 10.5 0.875C10.0187 0.875 9.625 1.26875 9.625 1.75V3.5H7.875C7.39375 3.5 7 3.89375 7 4.375C7 4.85625 7.39375 5.25 7.875 5.25H9.625V7C9.625 7.48125 10.0187 7.875 10.5 7.875ZM6.125 15.75C5.1625 15.75 4.38375 16.5375 4.38375 17.5C4.38375 18.4625 5.1625 19.25 6.125 19.25C7.0875 19.25 7.875 18.4625 7.875 17.5C7.875 16.5375 7.0875 15.75 6.125 15.75ZM14.875 15.75C13.9125 15.75 13.1338 16.5375 13.1338 17.5C13.1338 18.4625 13.9125 19.25 14.875 19.25C15.8375 19.25 16.625 18.4625 16.625 17.5C16.625 16.5375 15.8375 15.75 14.875 15.75ZM7.0875 11.375H13.6063C14.2625 11.375 14.84 11.0163 15.1375 10.4738L17.9725 5.10125C18.0794 4.89893 18.1027 4.66272 18.0372 4.44345C17.9717 4.22417 17.8228 4.03935 17.6225 3.92875C17.521 3.87317 17.4095 3.83836 17.2944 3.82633C17.1794 3.81431 17.0631 3.82531 16.9523 3.85871C16.8415 3.8921 16.7385 3.94721 16.6493 4.02083C16.56 4.09445 16.4863 4.1851 16.4325 4.2875L13.6063 9.625H7.46375L3.73625 1.75H1.75C1.26875 1.75 0.875 2.14375 0.875 2.625C0.875 3.10625 1.26875 3.5 1.75 3.5H2.625L5.775 10.1413L4.59375 12.2762C3.955 13.4487 4.795 14.875 6.125 14.875H15.75C16.2313 14.875 16.625 14.4813 16.625 14C16.625 13.5187 16.2313 13.125 15.75 13.125H6.125L7.0875 11.375Z" fill="#464334"/>
</svg>
